<?xml version="1.0" encoding="UTF-8"?>
<svg id="Ebene_1" data-name="Ebene 1" xmlns="http://www.w3.org/2000/svg" viewBox="0 0 200 200">
  <defs>
    <style>
      .cls-1, .cls-2 {
        stroke-width: 0px;
      }

      .cls-2 {
        fill: #fff;
      }
    </style>
  </defs>
  <g>
    <circle class="cls-2" cx="100" cy="100" r="95.5"/>
    <path class="cls-1" d="M100,9c50.18,0,91,40.82,91,91s-40.82,91-91,91S9,150.18,9,100,49.82,9,100,9M100,0C44.77,0,0,44.77,0,100s44.77,100,100,100,100-44.77,100-100S155.23,0,100,0h0Z"/>
  </g>
  <path class="cls-1" d="M100,18c45.21,0,82,36.79,82,82s-36.79,82-82,82S18,145.21,18,100,54.79,18,100,18M100,15C53.06,15,15,53.06,15,100s38.06,85,85,85,85-38.06,85-85S146.94,15,100,15h0Z"/>
  <circle class="cls-1" cx="104.5" cy="86.5" r="42.5"/>
  <path class="cls-1" d="M62,133.96v-13.96h-4.93c-4.11,0-6.75-4.38-4.82-8.01l12.74-23.99,60.75,21.93,5.25,50.07-49,11-7-27-6.95-2c-3.58-1.03-6.05-4.31-6.05-8.03Z"/>
  <path class="cls-2" d="M75,98c-2.21,0-4-1.79-4-4s1.79-4,4-4c0,0,0,8,0,8Z"/>
</svg>